<?xml version="1.0" encoding="utf-8"?>
<!-- Generator: Adobe Illustrator 16.0.0, SVG Export Plug-In . SVG Version: 6.00 Build 0)  -->
<!DOCTYPE svg PUBLIC "-//W3C//DTD SVG 1.1//EN" "http://www.w3.org/Graphics/SVG/1.1/DTD/svg11.dtd">
<svg version="1.1" id="Layer_1" xmlns="http://www.w3.org/2000/svg" xmlns:xlink="http://www.w3.org/1999/xlink" x="0px" y="0px"
	 width="2000px" height="2000px" viewBox="0 0 2000 2000" enable-background="new 0 0 2000 2000" xml:space="preserve">
<g>
	<path d="M532.82,1064.23l-23.522-132.776c-0.492-2.936-0.748-5.674-0.748-7.922c0-8.531,3.241-12.431,22.467-12.98l2.626-0.074
		v-6.382h-63.183l28.523,161.018c0.516,3.336,0.752,6.032,0.752,8.478c0,8.17-3.241,11.907-22.467,12.455l-2.628,0.081v6.377h90.897
		v-6.364l-2.61-0.094C541.56,1085.304,535.93,1081.223,532.82,1064.23z"/>
	<path d="M321.97,904.095v6.37l2.611,0.087c21.836,0.753,28.32,4.92,34.673,22.277l60.256,164.904h4.867l16.106-46.651
		l-53.791-146.986H321.97z"/>
	<path d="M339.145,1058.688c0-5.776,0.66-11.022,1.797-18.131l0.5-3.138h-7.006l-0.398,2.231
		c-5.679,31.859-17.441,44.87-41.947,46.4l-2.539,0.157v6.295h78.352v-6.301l-2.547-0.151
		C344.291,1084.798,339.145,1079.429,339.145,1058.688z"/>
	<path d="M713.764,1064.703v-50.519l-37.898-83.432c-2.365-5.066-3.667-9.581-3.667-12.708c0-3.602,1.46-6.882,19.084-7.493
		l2.615-0.087v-6.37h-94.559v6.37l2.615,0.087c22.065,0.76,28.95,4.962,36.838,22.461l41.068,90.966v40.725
		c0,16.811-4.599,20.602-25.885,21.343l-2.613,0.094v6.364h90.897v-6.364l-2.61-0.094
		C718.36,1085.305,713.764,1081.514,713.764,1064.703z"/>
	<path d="M712.274,910.345l2.486,0.203c14.302,1.164,21.042,3.111,21.042,15.861c0,8.542-2.165,18.878-6.093,29.091l-1.416,3.677
		h7.348l0.676-1.708c17.727-44.709,34.265-45.784,51.775-46.92l2.531-0.163v-6.291h-78.35V910.345z"/>
	<path d="M982.733,904.095l-0.142,2.558c-0.182,3.253-3.696,6.333-7.232,6.333c-2.739,0-5.338-0.466-11.281-2.945
		c-6.772-2.709-17.39-6.162-29.524-7.242l-2.42-0.215l-1.276,6.415l2.739,0.471c23.452,4.035,44.088,23.498,53.854,50.792
		l0.639,1.795h5.915l-5.193-57.961H982.733z"/>
	<path d="M1147.895,902.268h-2.707v6.717h2.707c55.459,0,59.773,81.769,59.773,106.833c0,36.122-10.787,58.94-32.063,67.821
		l-2.317,0.97l2.151,6.462l2.531-0.779c40.063-12.347,68.051-50.177,68.051-91.991c0-25.743-10.096-49.856-28.425-67.905
		C1199.181,912.258,1174.425,902.268,1147.895,902.268z"/>
	<path d="M1106.172,1055.729c-9.074-18.447-13.873-44.364-13.873-74.943c0-36.511,11.039-59.412,32.805-68.071l2.522-1.003
		l-2.446-6.111l-2.367,0.7c-19.611,5.79-37.221,17.898-49.582,34.085c-12.783,16.743-19.542,36.771-19.542,57.915
		c0,25.669,10.165,49.795,28.618,67.938c18.604,18.288,43.565,28.358,70.292,28.358h2.704v-6.983h-2.704
		C1132.198,1087.613,1116.585,1076.885,1106.172,1055.729z"/>
	<path d="M1408.003,902.268h-2.707v6.717h2.707c55.462,0,59.774,81.769,59.774,106.833c0,36.122-10.784,58.94-32.06,67.821
		l-2.321,0.97l2.155,6.462l2.525-0.779c40.068-12.347,68.053-50.177,68.053-91.991c0-25.743-10.095-49.856-28.422-67.905
		C1459.287,912.258,1434.53,902.268,1408.003,902.268z"/>
	<path d="M1366.286,1055.729c-9.074-18.447-13.876-44.364-13.876-74.943c0-36.511,11.039-59.412,32.803-68.071l2.522-1.003
		l-2.449-6.111l-2.365,0.7c-19.608,5.79-37.216,17.898-49.578,34.085c-12.784,16.743-19.546,36.771-19.546,57.915
		c0,25.669,10.166,49.795,28.619,67.938c18.603,18.288,43.567,28.358,70.295,28.358h2.704v-6.983h-2.704
		C1392.311,1087.613,1376.691,1076.885,1366.286,1055.729z"/>
	<path d="M1658.271,910.464v-6.369h-90.9v6.369l2.615,0.088c21.287,0.743,25.883,4.534,25.883,21.348v132.803
		c0,16.811-4.596,20.602-25.883,21.343l-2.615,0.094v6.364h62.404V931.9c0-16.814,4.594-20.605,25.888-21.348L1658.271,910.464z"/>
	<path d="M1704.402,1043.436l-0.657,1.76c-11.242,30.161-27.001,40.851-60.204,40.851h-3.752v6.458h63.609l7.051-49.068H1704.402z"
		/>
	<path d="M981.505,1067.296c-14.822,11.905-34.222,19.011-51.896,19.011c-6.011,0-11.429-0.826-16.138-2.474l-1.484-0.495
		c-28.029-10.396-44.764-48.833-44.764-102.814c0-28.388,7.643-63.672,44.064-70.54l2.691-0.505l-1.307-6.528l-2.558,0.393
		c-47.379,7.292-81.765,47.226-81.765,94.958c0,53.096,43.312,96.296,96.553,96.296c22.196,0,43.793-7.839,60.82-22.064l1.968-1.648
		l-4.001-5.339L981.505,1067.296z"/>
</g>
</svg>
