<?xml version="1.0" encoding="UTF-8" standalone="no"?>
<svg
   xmlns:dc="http://purl.org/dc/elements/1.1/"
   xmlns:cc="http://creativecommons.org/ns#"
   xmlns:rdf="http://www.w3.org/1999/02/22-rdf-syntax-ns#"
   xmlns:svg="http://www.w3.org/2000/svg"
   xmlns="http://www.w3.org/2000/svg"
   xmlns:sodipodi="http://sodipodi.sourceforge.net/DTD/sodipodi-0.dtd"
   xmlns:inkscape="http://www.inkscape.org/namespaces/inkscape"
   version="1.1"
   id="svg2"
   xml:space="preserve"
   width="2463.72"
   height="924.91998"
   viewBox="0 0 2463.72 924.91998"
   sodipodi:docname="SSMB-VECTOR-COLOR.ai"><metadata
     id="metadata8"><rdf:RDF><cc:Work
         rdf:about=""><dc:format>image/svg+xml</dc:format><dc:type
           rdf:resource="http://purl.org/dc/dcmitype/StillImage" /></cc:Work></rdf:RDF></metadata><defs
     id="defs6"><clipPath
       clipPathUnits="userSpaceOnUse"
       id="clipPath18"><path
         d="M 0,693.69 H 1847.79 V 0 H 0 Z"
         id="path16" /></clipPath></defs><sodipodi:namedview
     pagecolor="#ffffff"
     bordercolor="#666666"
     borderopacity="1"
     objecttolerance="10"
     gridtolerance="10"
     guidetolerance="10"
     inkscape:pageopacity="0"
     inkscape:pageshadow="2"
     inkscape:window-width="640"
     inkscape:window-height="480"
     id="namedview4" /><g
     id="g10"
     inkscape:groupmode="layer"
     inkscape:label="SSMB-VECTOR-COLOR"
     transform="matrix(1.3333333,0,0,-1.3333333,0,924.92)"><g
       id="g12"><g
         id="g14"
         clip-path="url(#clipPath18)"><g
           id="g20"
           transform="translate(701.1099,290.8703)"><path
             d="m 0,0 c -0.45,3.62 -0.74,6.22 -1.11,8.8 -0.16,1.13 -0.33,2.62 -1.73,2.66 -4.4,0.149 -8.81,0.06 -13.22,0.06 v -1.13 z m 25.59,-39 c 0.66,-4 1.24,-7.23 1.71,-10.48 0.21,-1.46 1,-1.92 2.36,-1.911 h 12 c 0.61,0 1.43,-0.229 1.67,0.67 0.24,0.901 -0.4,1.201 -1,1.481 -5.72,2.66 -10.67,6.59 -16.74,10.24 m 107.54,-89.54 c 25.67,0 51.33,-0.101 77,0 13.37,0.08 26.46,1.93 39,7.06 33.161,13.58 49.39,50.379 35.87,83.24 -10.55,25.63 -35.54,40.65 -64.19,41.51 -32.3,1 -64.65,0.41 -97,0.49 -4.497,-0.063 -8.982,0.489 -13.33,1.639 -9.567,2.702 -15.134,12.646 -12.433,22.213 0.596,2.113 1.573,4.097 2.883,5.858 5.17,7.07 12.39,8.92 20.59,8.92 49.66,0 99.33,0 149,-0.1 3.84,0 5.18,0.81 5.09,4.91 -0.29,12.16 -0.22,24.33 0,36.49 0,3.55 -0.64,4.89 -4.61,4.88 -54.16,-0.15 -108.33,0 -162.49,-0.18 -12.84,0 -25.57,-1.63 -37.49,-7 C 47.74,70.95 32.66,53.83 30.48,27.85 c -3.32,-39.661 28.18,-65.52 61.63,-69.71 16.28,-2 32.61,-1 48.92,-1.21 21.16,-0.3 42.32,0.57 63.47,-0.531 10.23,-0.54 17.56,-8.239 17.76,-18 0.21,-10.509 -7.15,-19.069 -17.49,-20.129 -3.986,-0.42 -7.991,-0.634 -12,-0.64 -47.66,-0.05 -95.33,-0.11 -143,0.07 -4.66,0 -5.46,-1.43 -5.35,-5.671 0.287,-11.819 0.287,-23.636 0,-35.449 -0.1,-4.12 1,-5.35 5.2,-5.32 27.85,0.29 55.68,0.189 83.51,0.2 M -107.23,88.53 V 88.4 c -27.49,0 -55,0.39 -82.47,-0.13 -18.83,-0.35 -36.12,-5.74 -51.23,-17.85 -23,-18.41 -29.51,-54.58 -13.69,-79.431 14.6,-22.929 36.68,-32.42 62.76,-33.619 16.47,-0.761 33,-0.221 49.48,-0.39 17.65,-0.19 35.32,0.68 52.95,-0.48 9.65,-0.63 16.56,-6.761 17.68,-15.21 1.38,-10.471 -3.36,-18.81 -12.86,-22.07 -4.1,-1.42 -8.47,-1.521 -12.8,-1.521 -48.82,0 -97.64,-0.059 -146.46,0.101 -4.2,0 -5.35,-1.12 -5.26,-5.24 0.26,-12.161 0.23,-24.32 0,-36.48 -0.06,-3.85 1.43,-4.71 5,-4.7 54.66,0.109 109.31,0 164,0.2 12.346,-0.012 24.575,2.39 36,7.069 33.19,13.661 49,50.13 35.55,83.241 -10.38,25.46 -35.69,40.53 -63.71,41.41 -32.3,1 -64.64,0.439 -97,0.599 -3.166,-0.052 -6.332,0.132 -9.47,0.55 -7.5,1.16 -13.43,4.611 -16.27,12.12 -2.84,7.511 -0.62,13.79 4.34,19.301 4.96,5.51 11.64,6.55 18.68,6.54 49.65,0 99.31,0.05 149,-0.11 4.06,0 5.11,1.229 5.06,5 -0.16,12 -0.25,24 0,36 0.1,4.179 -1.12,5.35 -5.29,5.32 -28,-0.19 -55.99,-0.11 -83.99,-0.11 z m 1048.8,-1.71 v 0 c -31.83,0 -63.66,-0.07 -95.489,0.09 -4.091,0 -5.441,-1 -5.341,-5.25 0.291,-11.66 0.36,-23.34 0,-35 -0.159,-4.66 1.421,-5.39 5.631,-5.381 55.333,0.127 110.666,0.16 166,0.101 4.83,0.057 9.646,-0.535 14.319,-1.76 8.851,-2.41 15.33,-9.591 15.54,-17.381 0.21,-7.79 -5.6,-14.779 -14.439,-17.59 C 1022.97,3.12 1017.951,3.01 1012.97,3 957.47,3 901.974,3.023 846.48,3.069 c -4.64,0 -5.84,-1.259 -5.71,-5.84 0.341,-12 0.101,-24 0.11,-35.999 0,-6.57 0,-6.52 6.401,-6.531 57.833,0 115.66,-0.043 173.479,-0.13 5.028,-0.038 9.919,-1.634 14,-4.569 8.861,-6.11 9.87,-17.221 2.58,-25.101 -6.34,-6.859 -14.62,-8.21 -23.24,-8.219 -55.833,-0.074 -111.663,-0.034 -167.489,0.12 -4.941,0 -6,-1.39 -5.83,-6.061 0.359,-11.319 0.34,-22.67 0,-34 -0.12,-4.46 1.21,-5.509 5.58,-5.489 60,0.146 120,0.18 180,0.1 6.159,0.013 12.314,0.346 18.439,1 20.54,2.16 38.92,9 54.531,23 24.179,21.69 25.339,58 2.059,80.679 -2.689,2.611 -2.33,3.511 0.21,5.891 13.7,12.809 19.95,28.529 16.65,47.279 -4,22.691 -19,36.751 -38.4,46.791 -16.3,8.449 -34.069,10.8 -52.22,10.79 z m -197.33,-205.6 c 9.5,0 19,0.24 28.5,-0.1 4.64,-0.16 5.131,1.39 4.131,5.39 -13.321,52.873 -26.557,105.743 -39.711,158.61 -8,32 -31,55.609 -68,56.77 C 646.63,102.6 624.6,99.959 604.63,88.39 592.09,81.14 583.4,70.64 581.371,55.959 575.78,15.59 570.52,-24.83 565.14,-65.23 c -1,-7.241 -5.71,-10.84 -12.91,-9.781 -9.14,1.341 -12.87,7.87 -15.21,15.79 -4.819,16.271 -8.399,32.83 -11.64,49.471 -4.35,22.359 -8.71,44.729 -18,65.75 -8,18.16 -19.94,33 -39,39.9 -30.07,11 -59.87,7.62 -88.7,-5 -14.76,-6.47 -25,-17.54 -28.099,-33.86 -1.651,-8.66 -2.441,-17.48 -3.611,-26.221 -3.78,-28.186 -7.563,-56.373 -11.349,-84.559 -2.761,-20.434 -5.568,-40.857 -8.42,-61.271 -0.401,-2.809 0.289,-3.809 3.279,-3.79 19.334,0.114 38.667,0.114 58,0 2.61,0 3.681,0.611 4,3.5 1.7,13.861 3.74,27.671 5.62,41.511 5.333,39.06 10.634,78.12 15.9,117.18 0.781,5.79 4.15,8.83 9.27,10.45 4.87,1.53 7.87,-1.37 10.521,-4.811 6,-7.769 9.319,-16.869 12.389,-26 10.7,-31.859 17.611,-64.75 25.72,-97.299 4.4,-17.67 14.52,-30.68 30.92,-38.07 33.631,-15.15 66.93,-13 99.221,4.21 12.889,6.86 23,16.8 25.399,32.069 2.83,18.061 5,36.221 7.52,54.34 3,21.741 5.85,43.5 8.911,65.241 0.849,6.06 4.589,9.74 10.24,10.61 5.269,0.809 7.209,-3.29 9.369,-6.771 6.811,-11 10.761,-23.199 14.58,-35.38 13,-41.45 22.28,-83.819 31,-126.33 0.721,-3.509 2.08,-4.569 5.58,-4.479 9.59,0.21 19.09,0.05 28.59,0.05 z m -81,113.229 c -2.51,-19.159 -5.29,-38.279 -7.47,-57.479 -2.51,-22.2 -12.84,-39.441 -31.16,-52.09 -21.89,-15.12 -46.319,-22.13 -72.66,-23.54 -19.78,-1.061 -39,1 -57.65,8.13 -25.32,9.78 -40.45,27.48 -44.9,54.67 -3.31,20.24 -8,40.25 -12.07,60.36 -0.69,3.42 -0.38,7.149 -3.33,10.939 -1,-5.95 -1.9,-11.059 -2.59,-16.21 -2.25,-16.899 -4.329,-33.83 -6.61,-50.719 -2.58,-19 -5.37,-38 -7.89,-57.071 -0.39,-2.899 -1.22,-3.779 -4.27,-3.769 -35.826,0.133 -71.656,0.133 -107.49,0 -3.9,0 -4.39,1.25 -3.8,4.66 1.31,7.46 2.26,15 3.34,22.359 -2.27,0.851 -3,-0.639 -3.83,-1.479 -16.4,-17.101 -37.1,-25.49 -59.86,-29.75 -11.309,-1.954 -22.773,-2.874 -34.25,-2.75 -60.16,-0.134 -120.323,-0.153 -180.49,-0.061 -7.12,0 -7,0 -6.91,7.451 0.12,12.94 0,25.889 0,38.73 -2.1,0.6 -2.36,-0.87 -2.92,-1.74 -12.5,-19.521 -30.85,-30.771 -52.5,-37.59 -17.16,-5.4 -34.82,-6.761 -52.6,-6.801 -60.16,-0.13 -120.32,0 -180.48,-0.139 -4.48,0 -5.6,1.259 -5.57,5.62 0.194,25.333 0.194,50.667 0,76 0,4.84 0.94,6.9 6.3,6.42 6,-0.55 12.13,-0.13 18.73,-0.13 -1.11,2.92 -3.25,3.309 -4.82,4.21 -15.86,9.12 -28.17,21.439 -35.35,38.509 -10.864,26.207 -4.722,56.385 15.52,76.261 16.81,16.56 37.42,25.06 60.24,29.08 12.295,2.013 24.742,2.956 37.2,2.82 59.5,0.06 119,0 178.48,0.14 4.71,0 5.82,-1.35 5.69,-5.841 -0.31,-11.489 -0.13,-23 -0.06,-34.489 0,-1.55 -0.63,-3.29 1,-5.08 4.29,4.859 7.63,10.37 12.3,14.71 13.51,12.56 29.38,20.57 47.19,25.18 18,4.67 36.37,5.41 54.82,5.41 57.834,0 115.66,0.023 173.48,0.07 3.701,0 5.14,-0.58 5.11,-4.78 -0.213,-26 -0.213,-52 0,-78 0,-4 -1.08,-5.231 -5,-5 -6.13,0.309 -12.279,0.08 -18.34,0.08 -0.67,-2.25 0.92,-2.551 2,-3.15 13.63,-7.621 24.59,-17.951 32.311,-31.611 0.589,-1 1,-2.889 2.669,-2.3 1.25,0.441 0.68,2 0.84,3.101 3.3,22.59 6.26,45.23 9.19,67.87 2.57,19.83 14,34.31 30.52,45 21.26,13.71 44.62,20.18 69.781,21.5 16.229,0.85 32.089,0 47.639,-5 23.64,-7.59 39.87,-23.63 51.52,-44.91 10,-18.2 15.28,-38.11 21.11,-57.83 0.38,-1.271 0.79,-2.53 1.271,-3.771 0.389,-0.638 0.845,-1.235 1.359,-1.779 2,6.39 2.16,12.4 3,18.27 5.16,34.13 18.21,63.31 50.16,80.81 16.11,8.83 33.45,12.75 51.66,14.16 15.91,1.23 31.58,0.51 46.821,-4 C 732.99,98.2 753.14,75.7 762.44,42.319 772.57,5.97 783.66,-30.11 794.331,-66.311 c 4.586,-15.559 9.176,-31.126 13.769,-46.7 0.71,-2.389 0.74,-5.179 3.15,-7 1.8,1.66 1.1,3.601 1.11,5.301 0,68.826 -0.029,137.653 -0.09,206.48 0,4.419 0.9,5.91 5.681,5.899 70.33,-0.169 140.66,0.101 211,-0.21 27.609,-0.119 54.359,-4.799 78.369,-19.779 21.57,-13.451 35.58,-32.09 38.94,-57.731 1.74,-13.319 -1.92,-25.679 -8.76,-37 -1.83,-3.059 -2,-5.229 -0.18,-8.439 15.49,-26.8 9.18,-58.5 -12.93,-80.62 -14.82,-14.83 -33.09,-23.191 -53.31,-28 -16.93,-4 -34.07,-5.201 -51.35,-5.201 H 818.25 c -3.61,0 -6.57,-0.12 -6,5.05 0.371,3.45 -2.81,2 -4.4,2 -30,0.101 -60,0.131 -90,0.091 -7.83,0 -15.67,0.1 -23.5,-0.11 -3.42,-0.09 -5,1.139 -5.65,4.51 -3.567,19.24 -7.234,38.466 -11,57.68 -3.47,17.85 -7.07,35.68 -10.6,53.52 -0.7,3.719 -0.59,7.719 -3.86,11.019"
             style="fill:#059241;fill-opacity:1;fill-rule:nonzero;stroke:none"
             id="path22" /></g><g
           id="g24"
           transform="translate(286.5698,117.3596)"><path
             d="m 0,0 h -1.57 v -38.92 c 0,-1.75 -0.52,-4.39 2.61,-2.37 11.87,7.671 23.6,15.53 32.4,26.9 9.31,12 8.83,22.941 -1.71,33.891 -8.24,8.56 -18.19,14.92 -28.08,21.35 -3.47,2.25 -3.68,0.49 -3.66,-2.43 C 0.03,25.61 0,12.801 0,0 m -10.23,-0.75 v 40.881 c 0,2.819 -0.26,4.279 -3.47,2.29 -10.87,-6.75 -21.71,-13.551 -30.67,-22.82 -10.63,-11 -11.22,-21.731 -2,-33.811 9.58,-12.5 22.71,-20.71 35.64,-29.119 2.91,-1.9 2.32,0.63 2.35,2.199 0.233,13.485 -0.386,26.973 -1.85,40.38 M 2.14,135.721 c 0.57,-3.21 0.19,-6.531 0.09,-9.861 -0.5,-16.479 -0.93,-33 -1.43,-49.45 -0.07,-2.55 -0.12,-4.45 3.32,-2.5 16.28,9.261 31.67,19.601 43.29,34.66 18.95,24.561 11.59,56.21 -5.16,71.91 -10.2,9.56 -23.05,14.14 -35.88,18.76 -3,1.101 -2.61,-1 -2.66,-2.46 C 3.15,176.48 2.627,156.127 2.14,135.721 M -11.16,70.91 v 6.611 c -0.3,10.16 -0.71,20.32 -0.94,30.479 -0.667,29.467 -1.29,58.937 -1.87,88.41 -0.06,3.08 -0.71,4.351 -4,3.191 -10.84,-3.79 -21.56,-7.781 -31.12,-14.371 -18.26,-12.58 -26.94,-39.4 -19.65,-60.339 3.95,-11.33 11,-20.401 19.71,-28.351 11.18,-10.21 23.79,-18.38 37.87,-25.63 M 12.96,58.181 c 8.11,-4.33 16,-9.17 22.91,-15.441 17.09,-15.5 22.09,-37.87 12.83,-56.83 -4.89,-10 -13.88,-15.309 -22.85,-20.66 -7,-4.159 -14.11,-8 -21.1,-12.14 -5.06,-3 -4.89,-3.089 -0.1,-6.189 5.13,-3.32 10.55,-6.25 15.15,-10.37 5.53,-5 7.57,-10.941 6.35,-18.301 -1.29,-7.79 -4.41,-14.779 -8.64,-22.21 -1.28,3.21 -0.37,5.61 0.21,8 4.41,18.46 -3.74,26.53 -17.58,37.65 -2.44,2 -2.42,-0.519 -2.46,-2.2 -0.26,-14 -1.19,-27.939 -0.84,-41.939 0.1,-3.821 -0.11,-7.66 -0.38,-11.481 -0.09,-1.299 0.34,-3.62 -1.67,-3.45 -2.01,0.17 -1.36,2.46 -1.36,3.811 0.45,13.34 -0.79,26.639 -0.84,40 0,5 -0.18,10 -0.25,15 0,2.75 -1,3.25 -3.26,1.559 -5.826,-4.149 -11.052,-9.082 -15.53,-14.66 -6.56,-8.39 -5.37,-17.729 -3.37,-27.17 0.505,-2.112 0.803,-4.269 0.89,-6.439 -6.59,9.62 -11.75,19.8 -10,32 0.86,6 5.22,9.859 10.07,13 4,2.649 8,5.389 12.17,7.78 3.66,2.09 2.91,3.399 -0.22,5.149 -8.4,4.68 -16.66,9.68 -25.07,14.371 -11.84,6.599 -20.66,15.559 -23.4,29.349 -3.53,17.771 2.77,32.301 15,44.83 7,7.191 15.49,12.37 24.86,17.25 -8.22,5.58 -15.91,10.731 -23.53,16 -6.22,4.454 -12.152,9.297 -17.76,14.5 -13.11,11.8 -18.61,26.821 -20.49,44.05 -3.61,33 11.54,55.811 37.91,73 2.36,1.54 4.85,2.891 7.19,4.471 1,0.71 2.79,1.259 2.63,2.719 -0.16,1.46 -1.91,1.43 -3.13,1.88 -19.87,7.26 -39.25,15.48 -57.35,26.471 -20.53,12.459 -40,26.239 -55.77,44.649 -10.74,12.57 -19.16,26.451 -20.69,43.431 -2,22.679 7.47,39.81 26.45,51.579 29.08,18 66,15.51 95,-6 5.562,-3.953 10.602,-8.593 15,-13.809 2.68,-3.301 6.73,-4.721 10.5,-8.5 -11.89,3 -22,7.409 -32.34,11.27 -17.88,6.699 -36.07,11.119 -55.43,10.23 -18,-0.83 -31.28,-13.301 -31.67,-31.25 -0.64,-30.411 13.29,-53.161 37.55,-70.31 20.67,-14.621 43.9,-24 67.4,-32.75 7.62,-2.851 15.32,-5.48 23,-8.261 6.19,-2.25 6.2,-2.279 6,4.051 -0.62,24.98 -1.25,49.96 -1.89,74.94 -1.16,47.46 -2.31,94.926 -3.45,142.399 -0.39,16 -0.85,32 -1.19,48 -0.107,2.623 -0.912,5.171 -2.33,7.38 -10.75,18.69 -10.93,37.56 -0.15,56.35 1.143,1.827 2.507,3.506 4.06,5 8.11,8.31 18.39,8.52 26.77,0.44 7.25,-7 10.58,-16 11.84,-25.71 1.67,-12.87 -0.18,-25.089 -7.33,-36.21 -0.95,-1.49 -0.78,-3.2 -0.82,-4.859 -0.61,-31 -1.15,-61.94 -1.88,-92.911 C 7.89,381.57 6.93,352.45 6.19,323.32 5.67,302.51 5.35,281.681 4.89,260.871 4.69,252.05 4.47,243.23 4.02,234.42 c -0.17,-3.379 1,-4.25 4,-3.129 28.13,10.54 56.81,19.829 82.54,35.859 18.29,11.391 34,25.23 41.19,46.36 4.31,12.631 6.85,25.551 3.33,39 -3.66,13.92 -16.76,20.67 -28.9,21.821 -23.57,2.23 -45,-5.241 -66.45,-13.451 -6.74,-2.58 -13.38,-5.489 -20.72,-7.109 14.42,13.66 28.04,27.85 47.42,34.149 28.77,9.38 55.86,6.701 79.33,-13.19 18.67,-15.81 23.46,-39.87 13.09,-63.399 -9,-20.411 -24.19,-35.54 -41.33,-48.94 -19.17,-15.054 -40.2,-27.573 -62.57,-37.25 -8.32,-3.58 -16.81,-6.771 -25.28,-10 -1.24,-0.47 -3.08,-0.561 -3.36,-1.71 -0.43,-1.83 1.69,-2.221 2.88,-2.931 13.09,-7.79 25.19,-16.79 34.08,-29.35 11.62,-16.44 12.82,-34.82 10.41,-54.25 -2.82,-22.71 -17,-37.12 -34,-49.71 -8,-5.889 -16.36,-11.21 -24.58,-16.75 -0.84,-0.559 -1.83,-0.849 -2.14,-2.259"
             style="fill:#059241;fill-opacity:1;fill-rule:nonzero;stroke:none"
             id="path26" /></g><g
           id="g28"
           transform="translate(257.79,594.4601)"><path
             d="m 0,0 c -8.07,-0.69 -15.17,-0.82 -22,-3.14 -8,-2.73 -13.81,-8.5 -19.55,-14.22 -18,-17.89 -39.6,-27.64 -64.7,-31.15 -19.428,-2.721 -39.022,-4.082 -58.64,-4.07 -24.93,0 -49.9,0.64 -74.74,3.35 -6.6,0.72 -12.85,2.39 -16.66,8.52 -2.82,4.54 -1.63,9.86 2.84,14.3 4.484,4.301 10.181,7.122 16.32,8.08 24,4.31 45.07,15.34 65.38,28.13 18,11.34 34.89,24.25 52.07,36.76 20.28,14.76 43.34,21.89 68.05,24.49 7.118,0.739 14.276,1.01 21.43,0.81 5.94,-0.17 8.06,-3.64 5.3,-9 -2.27,-4.41 -5.55,-8.27 -7.29,-13 -7.2,-19.63 -0.6,-35.52 18.63,-44.13 C -9.4,3.86 -5.15,2.17 0,0"
             style="fill:#059241;fill-opacity:1;fill-rule:nonzero;stroke:none"
             id="path30" /></g><g
           id="g32"
           transform="translate(309.54,594.4099)"><path
             d="m 0,0 c 5.78,2.66 10.5,4.83 15.22,7 21.58,9.82 22.24,31.6 13.65,48.07 -1.3,2.5 -3,4.77 -4.48,7.19 -3.36,5.6 -1.42,9.36 5.09,9.5 35.4,0.71 67.75,-8.16 96,-30.29 14.785,-11.515 30.137,-22.282 46,-32.26 20.41,-12.9 41.7,-23.55 65.68,-28 3.587,-0.722 7.017,-2.077 10.13,-4 6.8,-4 9.74,-8.85 8.78,-14.74 -0.79,-4.86 -6.4,-9.39 -13.08,-10.73 -8.65,-1.73 -17.46,-1.88 -26.19,-2.49 -25.751,-1.783 -51.582,-2.117 -77.37,-1 -17.5,0.75 -35,2.6 -52.09,7 -17.56,4.58 -32.36,14.1 -45.46,26.45 -3.14,3 -6.21,6 -9.54,8.75 C 23.62,-2.46 18.02,-0.83 0,0"
             style="fill:#059241;fill-opacity:1;fill-rule:nonzero;stroke:none"
             id="path34" /></g><g
           id="g36"
           transform="translate(1109.0898,90.01)"><path
             d="m 0,0 c -3.67,-1.59 -4.46,0.79 -5.51,2.56 -1.57,2.67 -3,2.74 -4.67,0.08 -1.17,-1.86 -2.15,-4.369 -5.68,-2.8 2.13,2.78 2.93,6.72 7,7.34 C -3.6,7.99 -3.09,2.82 0,0"
             style="fill:#686565;fill-opacity:1;fill-rule:nonzero;stroke:none"
             id="path38" /></g><g
           id="g40"
           transform="translate(1426.4297,97.05)"><path
             d="m 0,0 c -0.16,-4.63 -2.869,-6.67 -6.739,-7.16 -5,-0.62 -8.08,1.84 -9.62,7.11 C -10.83,-5.13 -5.43,-7.91 0,0"
             style="fill:#686565;fill-opacity:1;fill-rule:nonzero;stroke:none"
             id="path42" /></g><g
           id="g44"
           transform="translate(537.52,94.3)"><path
             d="m 0,0 c 0.14,-1.67 -0.18,-2.79 -2.27,-2.84 -2.36,0 -2.55,1.23 -2.59,3.1 C -4.9,2.13 -4.1,2.82 -2.27,2.83 -0.17,2.86 0.13,1.65 0,0"
             style="fill:#686565;fill-opacity:1;fill-rule:nonzero;stroke:none"
             id="path46" /></g><g
           id="g48"
           transform="translate(990.3301,97.1203)"><path
             d="M 0,0 C 1.16,0 1.9,-0.91 1.88,-2.75 1.86,-4.59 1.31,-5.57 -0.64,-5.61 -2.59,-5.65 -2.85,-4.61 -2.8,-3.09 -2.75,-1.57 -2.98,0.01 0,0"
             style="fill:#686565;fill-opacity:1;fill-rule:nonzero;stroke:none"
             id="path50" /></g><g
           id="g52"
           transform="translate(1840.7695,94.55)"><path
             d="m 0,0 c -0.17,-1.36 0.28,-3 -2.069,-3.05 -2.12,0 -2.281,1.2 -2.3,2.85 C -4.39,1.45 -4.06,2.63 -2.01,2.57 -0.209,2.52 0.23,1.53 0,0"
             style="fill:#686565;fill-opacity:1;fill-rule:nonzero;stroke:none"
             id="path54" /></g><g
           id="g56"
           transform="translate(1502.7197,94.5002)"><path
             d="m 0,0 c -0.06,-1.41 0.311,-3 -2,-3 -2.06,0 -2.27,1.2 -2.31,2.859 C -4.35,1.52 -3.89,2.64 -1.91,2.63 0.07,2.62 0.061,1.41 0,0"
             style="fill:#686565;fill-opacity:1;fill-rule:nonzero;stroke:none"
             id="path58" /></g><g
           id="g60"
           transform="translate(1353.7803,97.0998)"><path
             d="M 0,0 C 1.62,0.13 2.52,-0.54 2.39,-2.24 2.28,-3.58 2.979,-5.37 0.649,-5.569 -1.13,-5.729 -2.15,-5.109 -2.04,-3.12 -1.96,-1.64 -2.21,-0.04 0,0"
             style="fill:#686565;fill-opacity:1;fill-rule:nonzero;stroke:none"
             id="path62" /></g><g
           id="g64"
           transform="translate(1307.3701,94.3801)"><path
             d="M 0,0 C 0,-2 -0.82,-3.061 -2.601,-3 -4.38,-2.94 -4.95,-1.74 -5.06,0 -5.21,2.43 -3.57,2 -2.15,2.07 -0.47,2.15 0.29,1.5 0,0"
             style="fill:#686565;fill-opacity:1;fill-rule:nonzero;stroke:none"
             id="path66" /></g><g
           id="g68"
           transform="translate(1172.2002,73.2297)"><path
             d="m 0,0 c 0,6.49 -0.07,13 0,19.471 0,1.699 -1.181,4.389 2.28,4.389 2.72,0 5.63,0.81 6.85,-3.099 3.49,-11.24 7.22,-22.401 10.849,-33.591 0.077,-0.49 0.201,-0.973 0.371,-1.44 0.66,-1.06 0.4,-3 2.12,-3 1.719,0 1.73,1.8 2.13,3 3.833,11.333 7.636,22.666 11.41,34 0.62,1.84 0.7,4 3.45,4.19 3.14,0.21 5.229,0.131 5.13,-4.239 -0.3,-13.311 -0.08,-26.63 -0.14,-40 0,-1.561 1,-3.88 -2.171,-4 -3.17,-0.12 -2.309,2.17 -2.319,3.79 0,10.659 0,21.309 -0.061,32 0,1.21 0.741,3.09 -0.92,3.479 -2.25,0.54 -2,-1.9 -2.359,-3 -3.61,-10.349 -7,-20.79 -10.6,-31.15 -0.68,-2 -0.3,-4.909 -3.741,-5 -3.439,-0.09 -3.179,2.91 -3.849,4.85 -3.62,10.51 -7,21.09 -10.611,31.63 -0.38,1.12 -0.269,3.1 -2.09,2.81 C 3.91,14.8 4.55,12.96 4.54,11.75 c 0,-10.32 0.069,-20.64 -0.12,-31 0,-1.68 1.79,-4.79 -2.07,-4.93 -3.86,-0.14 -2.281,3 -2.32,4.701 C -0.101,-12.989 0,-6.54 0,0"
             style="fill:#686565;fill-opacity:1;fill-rule:nonzero;stroke:none"
             id="path70" /></g><g
           id="g72"
           transform="translate(1584.25,92.3801)"><path
             d="m 0,0 c -8.7,0 -8.7,0 -8.689,-8.521 0,-1.659 0.069,-3.309 0,-5 -0.071,-1.689 0.689,-2.399 2.349,-2.359 4.63,0.1 9.29,-0.38 13.88,0.53 4,0.789 5.87,3.36 5.78,7.44 -0.08,4.27 -2.15,6.87 -6.4,7.45 C 4.64,-0.12 2.311,-0.13 0,0 m -8.64,-29.51 c 0,-2.15 0.06,-4.31 0,-6.46 -0.07,-1.76 0.329,-2.91 2.41,-2.841 4.8,0.17 9.64,-0.099 14.38,0.511 5.1,0.65 7.55,4.13 7.26,9 -0.26,4.46 -3.12,7.44 -8,8 -2.476,0.225 -4.964,0.316 -7.45,0.27 -8.62,0.08 -8.62,0.06 -8.6,-8.48 m -5.26,10.42 c 0,6.67 0.16,13.33 -0.07,20 -0.11,3.16 1,4.06 4,3.89 5.32,-0.29 10.65,-0.18 16,-0.45 5.35,-0.27 9.61,-2.53 11.74,-7.72 2,-4.84 0.291,-8.75 -3.41,-12 -2.2,-1.941 -1.41,-3.25 0.76,-4.57 4.63,-2.81 6.54,-7 5.48,-12.31 -1.12,-5.59 -4.47,-9.1 -10.19,-10.28 -7.27,-1.5 -14.61,-0.47 -21.91,-0.8 -2.63,-0.12 -2.36,1.61 -2.36,3.3 -0.03,6.95 -0.04,13.95 -0.04,20.94"
             style="fill:#686565;fill-opacity:1;fill-rule:nonzero;stroke:none"
             id="path74" /></g><g
           id="g76"
           transform="translate(434.1602,48.1897)"><path
             d="m 0,0 c -9.43,0.13 -16.07,4.37 -18.31,11.811 -0.33,1.109 -1.38,2.7 0.49,3.349 1.64,0.57 3,0.32 3.89,-1.809 3.66,-8.481 14.89,-12 23,-7.311 2.744,1.402 4.374,4.318 4.13,7.391 -0.1,3.359 -1.36,5.91 -4.56,7 -4.87,1.679 -9.83,3.08 -14.73,4.649 -7.71,2.46 -11.65,7.091 -10.95,12.83 0.77,6.42 6.43,11 14.28,11.53 9.28,0.64 15.89,-2.919 18.17,-9.839 0.36,-1.111 1.78,-2.55 -0.27,-3.281 -1.39,-0.702 -3.086,-0.143 -3.788,1.246 -0.008,0.015 -0.015,0.03 -0.022,0.044 -4.41,7.38 -9.49,9.38 -17.67,7.18 -3.77,-1 -6,-3.26 -6.17,-7.39 -0.17,-4.129 2,-6.15 5.61,-7.139 3.85,-1 7.74,-2 11.57,-3.111 9.64,-2.87 14.18,-8.15 13,-15 C 16.36,4.7 9.38,-0.12 0,0"
             style="fill:#686565;fill-opacity:1;fill-rule:nonzero;stroke:none"
             id="path78" /></g><g
           id="g80"
           transform="translate(772.5098,48.2199)"><path
             d="m 0,0 c -9.63,0.07 -16.31,4.23 -18.38,11.57 -0.34,1.19 -1.79,2.93 0.71,3.64 2,0.58 3.15,-0.26 3.48,-2.34 1.37,-8.65 17.51,-11.52 24.54,-5.57 3.306,2.931 3.61,7.987 0.678,11.294 -0.744,0.839 -1.656,1.512 -2.678,1.976 -3.47,1.54 -7.29,2.3 -10.94,3.42 -2.425,0.569 -4.8,1.334 -7.1,2.29 -4.15,2.07 -7.64,4.92 -7.59,10.16 0.05,5.24 2.52,8.78 7.16,11 7.5,3.67 18,2.32 22.71,-3.16 1.06,-1.274 1.898,-2.717 2.48,-4.27 0.47,-1.22 1.69,-2.92 -0.53,-3.78 -2,-0.77 -2.87,0.35 -3.68,2.15 -3.15,7 -15.51,9.5 -21.28,4.46 -4.42,-3.87 -3,-10.59 2.94,-12.6 4.55,-1.54 9.34,-2.37 13.9,-3.92 8.18,-2.78 12,-7.79 11,-13.88 C 16.42,5.86 10.05,0.57 2.42,-0.04 1.67,-0.06 0.83,0 0,0"
             style="fill:#686565;fill-opacity:1;fill-rule:nonzero;stroke:none"
             id="path82" /></g><g
           id="g84"
           transform="translate(878.3501,66.5998)"><path
             d="m 0,0 c 0.102,2.068 -0.184,4.137 -0.84,6.101 -1.56,4.889 -5,7.629 -9.33,7.429 -4.33,-0.2 -7.7,-3.34 -8.65,-8.23 -0.37,-1.958 -0.551,-3.947 -0.54,-5.94 0,-8.469 3.76,-13.75 9.7,-13.839 C -3.72,-14.569 -0.01,-9.5 0,0 m 4.36,6.17 v -21 c 0,-1.069 0.44,-2.47 -1.32,-2.73 -1.3,-0.2 -2.25,0.11 -2.63,1.571 -0.61,2.349 -1.73,1.659 -3.22,0.659 -7.93,-5.31 -16.61,-2.51 -20,6.37 -3.39,8.88 -1,19.641 5.35,24 4.45,3 8.83,3.46 13.36,0.2 1,-0.74 2.1,-2.059 3.52,-1.28 1.42,0.78 0.63,2.4 0.67,3.63 0.1,3.32 0.05,6.65 0,10 0,1.36 -0.15,2.761 1.81,2.87 1.96,0.11 2.48,-1.08 2.47,-2.84 C 4.34,20.48 4.36,13.33 4.36,6.17"
             style="fill:#686565;fill-opacity:1;fill-rule:nonzero;stroke:none"
             id="path86" /></g><g
           id="g88"
           transform="translate(1268.3105,66.6701)"><path
             d="m 0,0 c -0.185,-2.838 0.256,-5.681 1.289,-8.33 1.62,-3.771 4.341,-6.28 8.75,-6.2 4.41,0.08 7,2.67 8.41,6.59 0.901,2.693 1.241,5.541 1,8.37 -0.479,8.41 -4.16,13.17 -10,13.049 C 3.609,13.36 0.109,8.43 0.05,0.02 Z m 24,6.22 c 0,-6.66 0.06,-13.31 0,-20 0,-1.29 1,-3.18 -1.19,-3.79 -1.71,-0.47 -2.54,0.14 -3.111,2.06 -0.63,2.12 -2.09,0.56 -3.119,0 -9.31,-5.32 -17.711,-1.79 -20.541,8.62 -2.72,10 0.62,19.46 7.9,23 3.606,1.91 7.982,1.607 11.29,-0.78 1.081,-0.7 2,-2.181 3.42,-1.31 1.42,0.87 1.121,2.629 1.061,4.09 -0.12,2.81 -0.37,5.619 -0.431,8.43 0,1.7 -0.699,3.87 2.301,3.939 3,0.071 2.46,-2 2.47,-3.769 V 16.229 C 24,12.87 24.01,9.54 24,6.22"
             style="fill:#686565;fill-opacity:1;fill-rule:nonzero;stroke:none"
             id="path90" /></g><g
           id="g92"
           transform="translate(1483.1699,67.2102)"><path
             d="m 0,0 c -0.122,1.54 -0.35,3.07 -0.68,4.58 -1.41,5.58 -4.92,8.54 -9.64,8.359 -4.48,-0.179 -7.46,-3.169 -8.6,-8.83 -0.386,-1.784 -0.594,-3.603 -0.62,-5.429 0,-8.29 4,-13.76 9.9,-13.76 6.08,0 9.66,5.1 9.64,15.08 m 4.2,5.63 v -21 c 0,-1 0.57,-2.51 -1.22,-2.76 -1.4,-0.19 -2.62,-0.11 -2.69,1.9 -0.09,2.23 -1.35,1.78 -2.7,1 -9.619,-5.831 -16.65,-3.67 -20.64,6.459 -2.76,7 -1.76,13.781 2.17,20 3.63,5.741 10.66,7 16.521,3.46 1.099,-0.669 2.17,-2.049 3.529,-1.259 1.36,0.79 0.66,2.43 0.69,3.68 0.08,3.329 0.07,6.66 0,10 0,1.76 0.35,2.9 2.451,2.79 2.099,-0.11 1.91,-1.41 1.91,-2.78 C 4.2,19.946 4.193,12.783 4.2,5.63"
             style="fill:#686565;fill-opacity:1;fill-rule:nonzero;stroke:none"
             id="path94" /></g><g
           id="g96"
           transform="translate(1426.2998,62.6897)"><path
             d="m 0,0 c -0.58,1 1.58,4 -2.22,3.17 -3.8,-0.829 -7.81,-1.59 -11.679,-2.5 -3,-0.69 -4.741,-2.75 -4.681,-5.69 0.07,-3.209 2.16,-5 5.3,-5.719 C -6.439,-12.21 -0.3,-7.42 0,0 m 4.82,2.46 c 0.21,-4.489 0.38,-9 0.64,-13.449 0.061,-1.071 1,-2.381 -0.93,-2.651 -1.19,-0.16 -2.48,-0.11 -2.87,1.321 -1.059,4 -3,2.25 -5,0.87 -3.945,-2.935 -9.056,-3.805 -13.75,-2.341 -3.695,0.943 -6.37,4.146 -6.639,7.95 -0.371,3.811 1.489,6.681 4.719,8.691 4,2.479 8.62,2.219 13,3.25 2.74,0.649 7,-0.311 6.69,4.729 -0.26,4.57 -2.85,7 -8,7 -4.1,0 -8.579,0.37 -10.44,-4.75 -0.719,-2 -2.33,-2 -3.65,-1.21 -1.319,0.79 -0.22,2 0.22,3 2.3,5 10,7.811 17,6.28 6.39,-1.389 8.86,-4.42 9.06,-11.19 0.07,-2.5 0,-5 0,-7.5 z"
             style="fill:#686565;fill-opacity:1;fill-rule:nonzero;stroke:none"
             id="path98" /></g><g
           id="g100"
           transform="translate(626.2002,62.6897)"><path
             d="m 0,0 c 0.15,3.761 0.16,3.73 -3.4,2.94 -3.4,-0.75 -6.84,-1.36 -10.23,-2.129 -3.13,-0.71 -5.09,-2.72 -5,-5.951 0.09,-3.23 2.38,-4.94 5.45,-5.58 C -6.29,-12.159 -0.28,-7.25 0,0 m -8.46,18 c -4.06,-0.33 -8,-0.359 -9.43,-5.12 -0.53,-1.779 -2.16,-1.579 -3.31,-1.06 -1.64,0.741 -0.4,2 0,2.91 2.09,4.861 9.34,7.75 16.41,6.581 6.55,-1.081 9.3,-4 9.68,-10.611 0.42,-7.46 -0.41,-15 0.74,-22.389 0.13,-0.871 0.42,-1.681 -0.78,-1.861 -1.2,-0.179 -2.56,-0.439 -3,1 -1.44,4.66 -3.59,2.061 -5.74,0.72 -4.15,-2.579 -8.61,-3.529 -13.33,-1.859 -4.16,1.469 -6.7,4.439 -6.5,9 0.23,5.29 3.89,7.929 8.47,9.21 3.34,0.929 6.88,1.089 10.3,1.769 2.44,0.49 5.53,0.17 5.31,4.32 -0.2,3.83 -1.54,6.411 -5.57,7 -1.14,0.161 -2.29,0.281 -3.25,0.39"
             style="fill:#686565;fill-opacity:1;fill-rule:nonzero;stroke:none"
             id="path102" /></g><g
           id="g104"
           transform="translate(720.0898,63.09)"><path
             d="m 0,0 c -0.35,1 1.31,3.62 -2,2.89 -4.06,-0.88 -8.15,-1.64 -12.16,-2.68 -2.769,-0.536 -4.654,-3.119 -4.32,-5.92 0.17,-2.81 2,-4.39 4.66,-5.18 6.99,-2.14 13.73,3.04 13.82,10.85 z m 5.43,-0.4 v -11 c 0,-1 1.33,-2.35 -0.82,-2.59 -1.18,-0.13 -2.51,-0.25 -2.87,1.26 -1.1,4.69 -3.15,2.14 -5.18,0.8 -4.58,-3 -9.4,-3.93 -14.66,-1.72 -3.244,1.154 -5.455,4.17 -5.58,7.61 -0.228,3.601 1.717,6.989 4.94,8.61 4.5,2.55 9.65,2.2 14.43,3.48 2,0.54 4.9,-0.06 4.84,3.64 -0.07,3.51 -1,6.2 -4.63,7.35 -5.54,1.72 -10.51,0.27 -13.71,-4.57 -1,-1.56 -2.13,-1.59 -3.28,-1.1 -2,0.85 -0.65,2.21 -0.09,3.28 2.46,4.78 10.49,7.61 17.24,6.13 6.37,-1.4 8.24,-3.56 8.75,-10.73 0.24,-3.48 0,-7 0,-10.47 z"
             style="fill:#686565;fill-opacity:1;fill-rule:nonzero;stroke:none"
             id="path106" /></g><g
           id="g108"
           transform="translate(1759.7803,69.2805)"><path
             d="m 0,0 c 1.998,0.115 4.001,0.115 6,0 4.41,-0.5 4.31,2 3.18,4.83 -1.166,3.406 -4.25,5.789 -7.84,6.06 -3.912,0.592 -7.782,-1.304 -9.71,-4.76 -1,-1.561 -1.94,-3.441 -1.151,-5.141 0.791,-1.7 3,-0.79 4.541,-0.92 C -3.44,-0.061 -1.67,-0.011 0,0 m 2.13,-3.94 c -2.822,-0.165 -5.651,-0.146 -8.47,0.059 -4.7,0.591 -4.82,-1.75 -3.91,-5.22 1.09,-4.2 3.399,-7.259 7.76,-8.179 4.52,-0.941 8.639,-0.25 11.429,4 0.295,0.399 0.553,0.824 0.771,1.269 0.8,1.851 2.33,1.92 3.71,1.111 1.87,-1.09 0.25,-2.411 -0.32,-3.33 -3.09,-5 -7.72,-7.14 -13.5,-6.781 -6.14,0.37 -10.79,3.151 -13.201,9 -3,7.25 -2.559,14.271 2,20.8 3.705,5.399 10.672,7.482 16.731,5 6,-2.409 10.82,-10 10.21,-15.739 -0.2,-1.931 -1.32,-2 -2.72,-2 z"
             style="fill:#686565;fill-opacity:1;fill-rule:nonzero;stroke:none"
             id="path110" /></g><g
           id="g112"
           transform="translate(561.54,69.3303)"><path
             d="m 0,0 c 2.16,0 4.32,0.14 6.46,0 3.68,-0.271 3.76,1.56 2.78,4.27 -1.36,3.78 -4,6.1 -7.94,6.58 -4.069,0.705 -8.115,-1.361 -9.93,-5.07 -2.55,-4.591 -1.92,-5.711 3.16,-5.75 z m 2.07,-4 c -3,0 -6,-0.2 -9,0.05 -4,0.34 -4.37,-1.35 -3.55,-4.7 1.2,-4.85 3.84,-8.09 8.84,-8.93 4.68,-0.78 8.63,0.54 10.8,5.1 1,2 2.35,2.339 4,1.43 2.28,-1.27 0.24,-2.6 -0.4,-3.58 -5.84,-9 -20.17,-8.56 -25.57,0.69 -4.94,8.46 -3,20.56 4.17,25.759 5.31,3.87 10.77,3.931 16.26,0.58 C 13.11,9.05 14.67,3.899 15.05,-2 15.18,-4 13.94,-4 12.52,-4 9.05,-3.98 5.56,-4 2.07,-4"
             style="fill:#686565;fill-opacity:1;fill-rule:nonzero;stroke:none"
             id="path114" /></g><g
           id="g116"
           transform="translate(1240.8604,69.2697)"><path
             d="m 0,0 c 2.319,0 4.649,0.141 7,0 3.43,-0.239 4,1.24 3,4.17 C 8.55,8.101 5.909,10.521 1.659,10.891 -2.78,11.28 -6.03,9.32 -8.141,5.49 -10.44,1.32 -9.681,0.08 -4.891,0.04 -3.311,-0.01 -1.65,0.011 0,0 m 2.739,-3.939 c -2.819,0 -5.67,-0.22 -8.469,0.059 -4.63,0.45 -4.92,-1.8 -3.93,-5.399 1.269,-4.62 4,-7.641 8.809,-8.301 4.641,-0.64 8.67,0.49 10.79,5.141 0.931,2 2.34,2.319 4,1.359 2,-1.17 0.09,-2.33 -0.439,-3.239 C 9.75,-20.7 0.77,-23 -6.261,-19.5 -12.58,-16.35 -15.74,-9.02 -14.57,-0.239 -13.471,7.99 -9.2,13.07 -1.931,14.44 8.069,16.311 15.42,8.311 15.689,-1.67 15.75,-3.909 14.38,-3.96 12.77,-3.95 9.399,-3.92 6.069,-3.939 2.739,-3.939"
             style="fill:#686565;fill-opacity:1;fill-rule:nonzero;stroke:none"
             id="path118" /></g><g
           id="g120"
           transform="translate(907.0698,69.34)"><path
             d="m 0,0 c 2.32,0 4.65,0.08 7,0 2.67,-0.12 3.58,0.68 2.67,3.49 -1.3,4 -3.73,6.7 -7.88,7.31 -4.052,0.789 -8.146,-1.153 -10.1,-4.79 -0.93,-1.57 -2.06,-3.4 -1.16,-5.11 0.9,-1.71 3,-0.73 4.54,-0.85 1.54,-0.12 3.28,-0.1 4.93,-0.1 z m 2.13,-4 c -3,0 -6,-0.22 -9,0.05 -3.53,0.31 -4.42,-1.06 -3.58,-4.29 1.16,-4.46 3.25,-8.13 8.12,-9.09 4.87,-0.96 9.4,-0.24 11.74,5 1,2.13 2.56,2.19 4,1.23 2,-1.3 0.08,-2.64 -0.59,-3.66 -4.84,-7.38 -16.27,-8.59 -22.76,-2.49 -9.27,8.69 -6.41,26.67 5,31.1 C 4.94,17.71 16.58,8.46 15.3,-2.09 15.04,-4.19 13.88,-3.96 12.6,-3.97 9.11,-4.021 5.62,-4 2.13,-4"
             style="fill:#686565;fill-opacity:1;fill-rule:nonzero;stroke:none"
             id="path122" /></g><g
           id="g124"
           transform="translate(674,69.2697)"><path
             d="m 0,0 c 2.33,0 4.66,0.141 7,0 3.26,-0.25 3.62,1.23 2.75,3.88 -1.32,4 -3.86,6.5 -8.13,7 -4.69,0.551 -8,-1.5 -10.2,-5.55 -2.2,-4.05 -1.3,-5.229 3.12,-5.29 C -3.71,-0.02 -1.88,0 0,0 m 2.33,-3.93 c -3.16,0 -6.33,-0.2 -9.47,0.05 -3.49,0.271 -3.88,-1.33 -3.2,-4.16 1.12,-4.659 3.22,-8.319 8.38,-9.359 4.92,-1 8.88,0.189 11.43,4.75 0.9,1.609 2,2.929 3.91,1.729 2.34,-1.51 0.12,-3.059 -0.57,-4.12 -4.62,-7 -15.78,-8.08 -22.55,-2.31 -9,7.661 -6.68,25.55 3.94,30.661 4.512,2.403 10.002,2.014 14.13,-1 4.91,-3.351 6.7,-8.451 7.09,-14.17 0.15,-2 -1.25,-2 -2.62,-2 C 9.31,-3.939 5.82,-3.93 2.33,-3.93"
             style="fill:#686565;fill-opacity:1;fill-rule:nonzero;stroke:none"
             id="path126" /></g><g
           id="g128"
           transform="translate(1794.5498,84.2297)"><path
             d="m 0,0 c 4.57,-0.46 8.87,-1.12 11.53,-5.189 0.611,-0.92 2.111,-2.34 0.51,-3.38 -1.06,-0.691 -2.66,-1.13 -3.72,0.849 -2.83,5.26 -7.67,4.441 -12.309,3.55 -2.076,-0.309 -3.644,-2.043 -3.74,-4.14 -0.409,-2.245 0.948,-4.435 3.139,-5.07 3.611,-1.25 7.28,-2.34 10.941,-3.43 4.279,-1.259 7.739,-3.43 8.099,-8.31 0.33,-4.38 -3.07,-8.26 -8.32,-10 -0.942,-0.321 -1.903,-0.579 -2.88,-0.77 -0.81,-0.17 -1.72,-0.139 -2,-1.11 -0.38,-1.22 0.5,-1.8 1.38,-2.319 2.41,-1.391 4.87,-2.821 2.83,-6.171 -1.51,-2.489 -8.069,-4.35 -10.47,-3.13 -0.642,0.216 -1.038,0.86 -0.94,1.53 0.14,0.83 0.791,1 1.461,1.09 1.319,0.11 2.67,0 4,0.24 2.239,0.361 3.729,3 2.439,3.74 -3.179,1.75 -3.46,5.93 -7,7.1 -2.761,0.825 -5.031,2.801 -6.23,5.42 -0.48,1.07 -1.9,2.431 -0.13,3.44 1.511,0.871 2.5,0.19 3.54,-1.4 3.24,-4.939 7.23,-6.24 12.86,-4.71 2.821,0.771 4.74,2.21 4.88,5.46 0.141,3.25 -1.53,4.84 -4.46,5.67 -3.5,1 -7,2.061 -10.439,3.27 -4.091,1.44 -7.261,4.11 -6.75,8.72 0.509,4.611 3.779,7.611 8.569,8.48 z"
             style="fill:#686565;fill-opacity:1;fill-rule:nonzero;stroke:none"
             id="path130" /></g><g
           id="g132"
           transform="translate(485.46,66.26)"><path
             d="m 0,0 c 0.285,2.77 -0.207,5.563 -1.42,8.07 -2,3.87 -5.11,6 -9.59,5.82 -3.959,-0.075 -7.444,-2.628 -8.71,-6.38 -2.044,-4.989 -1.986,-10.593 0.16,-15.54 1.43,-3.891 5.266,-6.364 9.4,-6.06 4.5,0.1 7.41,2.55 9.07,6.58 0.909,2.383 1.281,4.937 1.09,7.48 z m 5.13,0 c -0.07,-13 -9.38,-20.86 -20.62,-17.18 -7.11,2.32 -9.76,8.1 -10.51,14.94 -0.87,7.83 2.81,15.55 8.47,18.39 6,3 12.21,2.14 17.55,-2.6 C 4.08,9.94 4.98,5.1 5.13,0"
             style="fill:#686565;fill-opacity:1;fill-rule:nonzero;stroke:none"
             id="path134" /></g><g
           id="g136"
           transform="translate(1041.5605,65.59)"><path
             d="M 0,0 C 0.239,8.38 -3.471,14.07 -9.511,14.58 -16.45,15.16 -21.011,9.9 -21.19,1.1 c -0.191,-9.29 4,-14.84 11.049,-14.58 6.27,0.24 9.93,5.11 10.17,13.48 z m 5,-0.66 c 0,-6 -2,-11.85 -8.771,-15.08 -5.809,-2.79 -11.29,-2 -16.36,1.82 -6.29,4.76 -8,17.83 -3.399,25.21 4.235,6.802 13.035,9.129 20.08,5.31 C 2.93,13.1 5.1,7.25 5,-0.66"
             style="fill:#686565;fill-opacity:1;fill-rule:nonzero;stroke:none"
             id="path138" /></g><g
           id="g140"
           transform="translate(931,65.7502)"><path
             d="m 0,0 v 14.49 c 0,1.409 0.12,2.77 1.83,3.079 1.71,0.311 2.31,-0.689 2.41,-2.289 0.17,-2.551 1.48,-2.341 2.81,-0.881 2.078,2.192 4.875,3.563 7.88,3.861 5.636,0.919 10.95,-2.906 11.869,-8.542 0.014,-0.093 0.028,-0.186 0.041,-0.279 1.19,-7.939 0.28,-16 0.56,-23.939 0.07,-1.88 -0.87,-2.23 -2.42,-2.26 -2.06,0 -2.43,1.079 -2.42,2.86 0.07,6.33 0.05,12.66 0,19 0,6.89 -1.92,9.259 -7.44,9.44 C 8.78,14.729 5.01,11.46 4.78,5.08 c -0.21,-6 0,-12 0,-18 0,-1.67 0.76,-3.82 -2.35,-3.851 C -0.68,-16.8 0.04,-14.7 0.02,-13 -0.07,-8.66 0,-4.33 0,0"
             style="fill:#686565;fill-opacity:1;fill-rule:nonzero;stroke:none"
             id="path142" /></g><g
           id="g144"
           transform="translate(1641.6699,66.1897)"><path
             d="m 0,0 v -14 c 0,-1.18 0.66,-2.859 -1.43,-3.13 -1.59,-0.21 -2.36,0.401 -2.58,2.151 -0.38,3.08 -2.099,1.889 -3.36,0.689 -4.08,-3.85 -8.609,-4.84 -13.73,-2.409 -5.12,2.429 -5.79,7.309 -5.839,12.269 -0.071,6.16 0,12.321 0,18.481 0,1.409 -0.451,3.099 2,3.189 2.649,0.101 2.379,-1.62 2.399,-3.309 0.08,-6.821 0.22,-13.641 0.27,-20.46 0,-4.781 2.18,-7.521 7.121,-7.761 5.559,-0.279 9.589,2.311 10.12,7.42 0.539,5.27 0.219,10.631 0.269,16 v 5 c 0.08,1.83 0.651,3.24 2.93,3.16 2.5,-0.09 1.81,-1.91 1.82,-3.25 C 0.02,9.32 -0.01,4.66 0,0"
             style="fill:#686565;fill-opacity:1;fill-rule:nonzero;stroke:none"
             id="path146" /></g><g
           id="g148"
           transform="translate(1115.25,66.3596)"><path
             d="m 0,0 v 14 c 0,1.261 -0.32,2.811 1.66,3 1.98,0.19 2,-1 2.18,-2.489 0.37,-3.17 1.77,-2 3.15,-0.641 4,3.83 8.55,5.061 13.68,2.75 5.13,-2.309 6.31,-6.809 6.21,-12 -0.1,-5.819 0.09,-11.649 -0.09,-17.46 0,-1.609 1.5,-4.359 -2,-4.51 -3.5,-0.15 -2.189,2.67 -2.229,4.281 -0.161,6 0,12 -0.101,18 -0.17,6.469 -2.2,8.779 -7.48,9 -6,0.25 -9.77,-2.5 -10.209,-8.401 -0.491,-6.45 -0.25,-12.95 -0.38,-19.429 0,-1.51 0.71,-3.481 -2.141,-3.47 -2.85,0.01 -2.229,1.84 -2.24,3.43 C -0.02,-9.31 0,-4.67 0,0"
             style="fill:#686565;fill-opacity:1;fill-rule:nonzero;stroke:none"
             id="path150" /></g><g
           id="g152"
           transform="translate(1513.3799,66.34)"><path
             d="m 0,0 v 14 c 0,1.31 -0.21,2.8 1.681,3.06 1.889,0.26 2,-0.91 2.239,-2.41 0.42,-3.18 2,-1.8 3.24,-0.57 2.256,2.263 5.286,3.586 8.48,3.7 5.793,0.382 10.797,-4.004 11.179,-9.796 0.011,-0.171 0.018,-0.342 0.021,-0.514 0.261,-7.32 0,-14.65 0.09,-22 0,-1.69 -0.11,-2.92 -2.329,-2.82 -2.431,0.1 -2,1.77 -2,3.18 -0.101,6.82 0.129,13.66 -0.361,20.45 -0.43,6.11 -2.5,7.69 -8.12,7.64 -5.439,0 -9,-3 -9.32,-8.26 -0.34,-6.3 -0.16,-12.639 -0.29,-19 0,-1.67 0.73,-4 -2.25,-4.05 C -0.88,-17.5 0.03,-15.16 0,-13.53 -0.04,-8.99 0.01,-4.5 0,0"
             style="fill:#686565;fill-opacity:1;fill-rule:nonzero;stroke:none"
             id="path154" /></g><g
           id="g156"
           transform="translate(845.2402,65.9797)"><path
             d="m 0,0 v -14 c 0,-1.26 0.42,-2.81 -1.67,-3 -1.79,-0.12 -2.3,0.771 -2.23,2.41 0.1,2.25 -1.21,2 -2.55,1.22 -0.657,-0.507 -1.285,-1.051 -1.88,-1.63 -8.19,-6 -17.68,-2 -18.43,8.13 -0.52,7.12 -0.11,14.31 -0.15,21.471 0,1.779 0.5,2.849 2.53,2.809 2.03,-0.04 1.93,-1.439 1.94,-2.769 0,-6.661 -0.06,-13.33 0.11,-20 0.16,-6.231 2.17,-8.511 7.19,-8.771 5.91,-0.3 9.83,2.651 10.28,8.401 0.48,6.129 0.28,12.299 0.65,18.439 0.1,1.57 -1.68,4.53 1.85,4.57 3.69,0.05 2.23,-3 2.31,-4.86 C 0.13,8.34 0,4.17 0,0"
             style="fill:#686565;fill-opacity:1;fill-rule:nonzero;stroke:none"
             id="path158" /></g><g
           id="g160"
           transform="translate(1366.8896,66.3703)"><path
             d="m 0,0 v 14 c 0,1.189 -0.449,2.84 1.63,3 2.08,0.16 1.75,-1.25 2.06,-2.561 0.69,-2.87 2.13,-1.599 3.38,-0.379 2.38,2.387 5.629,3.705 9,3.65 5.83,-0.07 10.25,-4 10.571,-9.88 0.38,-7.141 0.33,-14.301 0.33,-21.46 0,-1.65 0.349,-3.94 -2.651,-3.721 -2.83,0.201 -1.82,2.321 -1.84,3.75 -0.089,6.161 0,12.321 -0.07,18.491 -0.069,6.17 -2.18,8.759 -7.51,9 -6.16,0.28 -10,-2.861 -10.32,-8.85 -0.269,-6.32 -0.09,-12.66 -0.159,-19 0,-1.53 0.64,-3.471 -2.171,-3.471 -2.81,0 -2.29,1.781 -2.3,3.41 z"
             style="fill:#686565;fill-opacity:1;fill-rule:nonzero;stroke:none"
             id="path162" /></g><g
           id="g164"
           transform="translate(1713.1895,65.6897)"><path
             d="m 0,0 v -14 c 0,-1.159 0.24,-2.43 -1.43,-2.68 -1.67,-0.25 -2.439,0.14 -2.509,2 -0.13,3.071 -1.92,2.13 -3.271,0.941 -1.339,-1.251 -2.881,-2.266 -4.56,-3 -7.089,-2.881 -14.81,1.769 -15.099,9.409 -0.291,7.31 -0.08,14.65 -0.08,22 0,1.53 -0.181,3 2.189,3 2.37,0 2,-1.72 2,-3.149 v -19 c 0,-6.151 2.37,-9.071 7.29,-9.391 6,-0.39 10.101,2.82 10.47,8.82 0.37,6 0.061,12.321 0.17,18.481 0,1.639 -0.85,4 2.101,4.179 C 0.58,17.82 -0.1,15.33 -0.08,13.45 0.03,9 0,4.551 0,0"
             style="fill:#686565;fill-opacity:1;fill-rule:nonzero;stroke:none"
             id="path166" /></g><g
           id="g168"
           transform="translate(1666.75,51.6897)"><path
             d="m 0,0 c 3.24,0.16 6.6,1.511 7.71,6 0.49,2 1.51,3.08 3.52,2.32 2.57,-1 0.57,-2.54 0.09,-3.61 -1.903,-4.779 -6.467,-7.967 -11.61,-8.109 -5.121,-0.425 -10.045,2.064 -12.74,6.439 -4.5,6.69 -4.1,17.7 0.79,24 5.92,7.66 18.31,7 22.86,-1.25 0.6,-1.08 1.89,-2.42 0.09,-3.359 -1.36,-0.71 -2.64,-0.62 -3.45,1.42 -1.84,4.66 -5.74,5.679 -10.28,4.87 -4.541,-0.811 -7.23,-4 -8,-8.431 -0.876,-4.259 -0.785,-8.661 0.27,-12.88 C -9.38,2.391 -6.08,0 0,0"
             style="fill:#686565;fill-opacity:1;fill-rule:nonzero;stroke:none"
             id="path170" /></g><g
           id="g172"
           transform="translate(512.23,84.2502)"><path
             d="m 0,0 c 4.87,-0.46 8.89,-1.84 11.31,-5.931 0.69,-1.159 2.78,-2.75 0.54,-4.119 -1.89,-1.16 -2.88,0.33 -3.7,2 -1.51,3.159 -4.17,4.47 -7.68,4.43 -4.92,-0.061 -8.29,-2.151 -9.67,-7 -1.63,-5.72 -1.8,-11.47 0.66,-17 1.69,-3.771 5,-5.061 9,-5 3.598,-0.194 6.93,1.895 8.32,5.22 0.246,0.618 0.447,1.253 0.6,1.9 0.56,1.819 2,1.59 3.27,1.189 1.92,-0.62 0.56,-1.919 0.26,-2.83 C 10.24,-35.25 0.5,-38.69 -7.2,-33.98 c -6.83,4.18 -8.11,11.06 -7.51,18.339 0.57,7 3.63,12.421 10.71,14.771 1.313,0.376 2.649,0.666 4,0.87"
             style="fill:#686565;fill-opacity:1;fill-rule:nonzero;stroke:none"
             id="path174" /></g><g
           id="g176"
           transform="translate(1316.2998,65.2404)"><path
             d="M 0,0 C -0.21,9.479 3.65,15.649 10.8,18.18 16.95,20.35 24.5,17.42 26.971,11.81 27.36,10.939 28.69,9.68 26.86,8.93 25.65,8.439 24.2,8.029 23.53,9.84 21.58,15.14 17.431,16.14 12.591,15.09 7.21,13.93 5.391,9.829 4.761,4.8 4.278,1 4.529,-2.856 5.501,-6.561 c 1.18,-4.629 4.42,-6.919 9.069,-7.12 4.441,-0.189 7.861,1.571 9.21,6 0.571,1.861 1.18,3.25 3.311,2.451 2.859,-1.09 0.67,-2.781 0.109,-4 -2.416,-5.116 -7.726,-8.222 -13.37,-7.821 -6.332,0.654 -11.553,5.251 -13,11.45 C 0.438,-3.753 0.161,-1.883 0,0"
             style="fill:#686565;fill-opacity:1;fill-rule:nonzero;stroke:none"
             id="path178" /></g><g
           id="g180"
           transform="translate(591,94.2697)"><path
             d="m 0,0 c 0,-2.35 0.09,-4.45 0,-6.54 -0.14,-2.58 0,-4.739 3.54,-4.33 1.28,0.141 2.38,-0.239 2.22,-1.869 -0.13,-1.37 -1.2,-1.45 -2.21,-1.341 -3,0.32 -3.64,-1.14 -3.57,-3.83 0.15,-6.14 0,-12.29 0.06,-18.44 0,-2.79 0.47,-5.48 4.3,-5.28 1.46,0.08 2,-0.559 2.09,-2 0.07,-2 -1.23,-2 -2.61,-2.08 -5,-0.38 -7.82,2.11 -8,7.851 -0.27,6.469 -0.09,13 -0.13,19.429 0,2.08 0.6,4.59 -2.92,4.44 -1,0 -1.35,0.77 -1.32,1.671 0,0.719 0.37,1.389 1.13,1.369 4.23,-0.13 3.18,3 3.06,5.221 C -4.65,-2.7 -3.78,-0.72 0,0"
             style="fill:#686565;fill-opacity:1;fill-rule:nonzero;stroke:none"
             id="path182" /></g><g
           id="g184"
           transform="translate(805.3701,94.4397)"><path
             d="m 0,0 v -6.109 c -0.07,-2.71 -0.51,-5.59 3.82,-4.951 0.817,0.257 1.687,-0.197 1.943,-1.014 0.069,-0.218 0.088,-0.448 0.057,-0.676 C 5.73,-14.069 4.66,-14.3 3.63,-14.149 0.1,-13.63 0,-15.76 0.04,-18.37 c 0.1,-6.159 0.1,-12.323 0,-18.489 0,-2.851 0.53,-5.061 4,-4.911 1.87,0.09 2.29,-1 2.25,-2.5 -0.05,-1.629 -1.33,-1.58 -2.52,-1.69 -4.26,-0.39 -7.34,1.87 -8,6.28 -1.06,7.111 -0.24,14.281 -0.47,21.43 -0.06,1.91 0.58,4.23 -2.67,4.15 -1,0 -1.41,0.741 -1.35,1.71 0,0.76 0.45,1.3 1.21,1.281 4,0 2.85,3 2.72,5 C -5.09,-2.75 -3.76,-0.89 0,0"
             style="fill:#686565;fill-opacity:1;fill-rule:nonzero;stroke:none"
             id="path186" /></g><g
           id="g188"
           transform="translate(1826.1797,48.5002)"><path
             d="m 0,0 c -4.58,0.06 -7.13,2.43 -7.33,7.59 -0.25,6.479 -0.069,13 -0.1,19.47 0,2.22 0.8,5 -3.059,4.78 -1.061,0 -1.351,0.74 -1.321,1.68 0,0.76 0.42,1.34 1.161,1.299 4.25,-0.239 3.08,2.841 3.21,5.131 -0.062,1.158 0.015,2.32 0.229,3.46 0.461,1.311 1.701,2.186 3.091,2.18 1.76,0 1,-1.75 1.059,-2.76 0.116,-1.331 0.116,-2.669 0,-4 -0.139,-2.41 0,-4.38 3.331,-3.95 1.089,0.14 2.53,0.22 2.5,-1.55 C 2.74,31.56 1.34,31.67 0.23,31.79 c -2.74,0.3 -3.37,-1 -3.31,-3.49 0.131,-6.49 0.101,-13 0,-19.48 0,-2.74 0.81,-4.591 3.84,-4.65 1.541,0 2.56,-0.34 2.47,-2.21 C 3.15,-0.41 1.391,0.14 0,0"
             style="fill:#686565;fill-opacity:1;fill-rule:nonzero;stroke:none"
             id="path190" /></g><g
           id="g192"
           transform="translate(974.25,94.4201)"><path
             d="m 0,0 c 0,-2.39 0.11,-4.33 0,-6.26 -0.21,-3 -0.05,-5.39 4,-4.78 0.839,0.26 1.729,-0.21 1.989,-1.049 0.052,-0.165 0.075,-0.338 0.071,-0.512 0,-1.379 -1,-1.659 -2,-1.509 -4.08,0.61 -4.09,-1.89 -4,-4.83 0.13,-5.81 0.07,-11.63 0,-17.451 0,-2.929 0.4,-5.5 4.13,-5.399 1.9,0 2.28,-1.09 2.3,-2.481 0,-2.149 -1.73,-1.58 -2.92,-1.62 -5,-0.159 -7.7,2.471 -7.87,8.091 -0.18,6.31 0,12.63 0,19 0,2.21 0.87,5 -3,4.81 -0.93,0 -1.38,0.82 -1.38,1.74 -0.066,0.604 0.369,1.146 0.974,1.213 0.088,0.01 0.178,0.009 0.266,-0.003 3.89,-0.34 3.24,2.45 3.13,4.65 C -4.58,-3.58 -4.25,-1.14 0,0"
             style="fill:#686565;fill-opacity:1;fill-rule:nonzero;stroke:none"
             id="path194" /></g><g
           id="g196"
           transform="translate(647.3901,94.0998)"><path
             d="m 0,0 c 0,-2.27 0.11,-4.109 0,-5.92 -0.22,-3 0,-5.41 4,-4.809 1,0.16 2,-0.191 1.92,-1.611 -0.08,-1.42 -1.1,-1.599 -2.09,-1.45 -3.75,0.561 -3.93,-1.649 -3.86,-4.49 0.13,-5.829 0.08,-11.659 0,-17.49 0,-3 0.11,-5.879 4.26,-5.74 1.57,0.06 2.06,-0.8 2.06,-2.139 0,-1.58 -1.13,-1.781 -2.37,-2 -4.53,-0.621 -7.91,1.939 -8.08,6.609 -0.25,6.66 -0.17,13.32 -0.31,20 -0.05,2.29 1,5.141 -3.14,5.4 -0.733,0.052 -1.285,0.689 -1.232,1.421 0.043,0.596 0.477,1.09 1.062,1.209 4.43,0.3 3.24,3.38 3.3,5.781 C -4.39,-2.41 -3.76,-0.28 0,0"
             style="fill:#686565;fill-opacity:1;fill-rule:nonzero;stroke:none"
             id="path198" /></g><g
           id="g200"
           transform="translate(1054.9395,66.6897)"><path
             d="m 0,0 v 13.49 c 0,1.24 -0.449,2.8 1.541,3.111 1.73,0.269 2.09,-0.5 2.439,-2.151 0.791,-3.76 2.371,-1.32 3.541,-0.139 2.07,2.069 4.129,4.069 7.36,2.439 0.939,-0.47 2.399,-0.72 2,-2.37 -0.381,-1.39 -1,-2 -2.79,-2 C 7.471,12.44 4.99,9.91 4.82,3.13 c -0.15,-5.83 0,-11.659 0,-17.489 0,-1.651 0.361,-3.361 -2.309,-3.391 C -0.16,-17.779 0,-16.27 0.011,-14.489 0.061,-9.63 0,-4.8 0,0"
             style="fill:#686565;fill-opacity:1;fill-rule:nonzero;stroke:none"
             id="path202" /></g><g
           id="g204"
           transform="translate(1006.7695,72.9904)"><path
             d="m 0,0 v -20.9 c 0,-1.481 0.33,-3.08 -2,-3.09 -2.13,0 -2.31,1.189 -2.31,2.899 0.054,14.101 0.054,28.2 0,42.301 0,1.72 0.25,3 2.35,2.899 2.36,0 2,-1.79 2,-3.21 C 0.021,13.93 0,6.97 0,0"
             style="fill:#686565;fill-opacity:1;fill-rule:nonzero;stroke:none"
             id="path206" /></g><g
           id="g208"
           transform="translate(1728.8105,79.5695)"><path
             d="m 0,0 c 1.89,0 2.13,1.9 3.22,2.82 1.939,1.63 4,2.34 6.399,1.201 1,-0.48 2.351,-0.75 1.881,-2.39 -0.381,-1.301 -0.73,-2.12 -2.641,-2.12 -7.049,0 -8.5,-1.17 -9.109,-8.111 -0.541,-6.089 -0.28,-12.259 -0.431,-18.4 0,-1.479 0.75,-3.46 -2,-3.59 -2.75,-0.13 -2.37,1.601 -2.37,3.28 V 0.591 c 0,1.159 -0.72,2.83 1.33,3.189 2.05,0.361 2.68,-0.769 2.75,-2.54 C -1.421,0.221 -1.421,-0.439 0,0"
             style="fill:#686565;fill-opacity:1;fill-rule:nonzero;stroke:none"
             id="path210" /></g><g
           id="g212"
           transform="translate(537.54,66.2297)"><path
             d="m 0,0 v -14.439 c 0,-1.721 -0.2,-2.861 -2.36,-2.8 -2,0.059 -2.53,0.84 -2.51,2.729 0.07,9.46 0,18.91 0,28.37 0,1.75 0,3.29 2.52,3.37 2.7,0.09 2.32,-1.66 2.32,-3.29 z"
             style="fill:#686565;fill-opacity:1;fill-rule:nonzero;stroke:none"
             id="path214" /></g><g
           id="g216"
           transform="translate(1356.1699,66.3195)"><path
             d="m 0,0 v -14 c 0,-1.64 0.43,-3.42 -2.27,-3.369 -2.32,0.05 -2.14,1.489 -2.13,3.05 v 28.46 c 0,1.58 0,3 2.25,3 2.25,0 2.171,-1.59 2.171,-3.13 C 0.014,9.33 0.007,4.66 0,0"
             style="fill:#686565;fill-opacity:1;fill-rule:nonzero;stroke:none"
             id="path218" /></g><g
           id="g220"
           transform="translate(992.1797,65.7805)"><path
             d="m 0,0 v -13.931 c 0,-1.67 -0.08,-2.889 -2.3,-2.87 -2.22,0.021 -2.38,1.051 -2.37,2.821 0.061,9.45 0,18.91 0,28.37 0,1.759 0,3.389 2.55,3.25 2.25,-0.13 2.08,-1.71 2.091,-3.201 C 0.011,9.619 0,4.81 0,0"
             style="fill:#686565;fill-opacity:1;fill-rule:nonzero;stroke:none"
             id="path222" /></g><g
           id="g224"
           transform="translate(1098.4004,65.84)"><path
             d="m 0,0 v 14.41 c 0,1.91 0.279,3.2 2.64,3.18 2.36,-0.02 2.19,-1.46 2.179,-3 v -28.33 c 0,-1.94 -0.269,-3.14 -2.609,-3.11 -2.34,0.03 -2.24,1.329 -2.22,3 C 0.029,-9.28 0,-4.64 0,0"
             style="fill:#686565;fill-opacity:1;fill-rule:nonzero;stroke:none"
             id="path226" /></g><g
           id="g228"
           transform="translate(1498.4102,66.6096)"><path
             d="m 0,0 v 13.48 c 0,1.621 -0.38,3.42 2.3,3.361 2.43,0 2,-1.711 2,-3.131 v -28.449 c 0,-1.66 -0.08,-2.931 -2.31,-2.861 -2.4,0.071 -2,1.661 -2,3.121 z"
             style="fill:#686565;fill-opacity:1;fill-rule:nonzero;stroke:none"
             id="path230" /></g><g
           id="g232"
           transform="translate(1840.8105,66.3498)"><path
             d="m 0,0 v -14.42 c 0,-1.66 -0.091,-2.899 -2.28,-2.92 -2.37,0 -2.111,1.481 -2.111,3 v 27.861 c 0,1.669 -0.219,3.379 2.34,3.429 3.061,0.06 1.83,-2.179 1.87,-3.51 0.13,-4.47 0,-9 0,-13.43 z"
             style="fill:#686565;fill-opacity:1;fill-rule:nonzero;stroke:none"
             id="path234" /></g><g
           id="g236"
           transform="translate(1307.5996,65.8801)"><path
             d="m 0,0 v -14 c 0,-1.73 -0.31,-2.87 -2.439,-2.79 -1.85,0.07 -2.13,1.1 -2.13,2.6 v 29 c 0,1.75 0.34,2.82 2.46,2.77 C 0.23,17.58 0,16 0,14.51 0.007,9.67 0.007,4.833 0,0"
             style="fill:#686565;fill-opacity:1;fill-rule:nonzero;stroke:none"
             id="path238" /></g><g
           id="g240"
           transform="translate(975.3799,33.3303)"><path
             d="M 0,0 C 0,1.93 2.69,4.29 -1.25,5.569 -2.45,5.96 -2.07,8 -1.7,9.189 -1.33,10.38 -0.05,10.06 0.88,9.97 2.022,9.919 2.906,8.951 2.855,7.81 2.845,7.569 2.792,7.332 2.7,7.109 c -0.69,-2.42 1,-5.859 -2.79,-7 z"
             style="fill:#686565;fill-opacity:1;fill-rule:nonzero;stroke:none"
             id="path242" /></g><g
           id="g244"
           transform="translate(975.29,33.4104)"><path
             d="m 0,0 c -0.09,-0.271 -0.17,-0.53 -0.26,-0.79 -0.85,0.71 0.14,0.519 0.35,0.71 z"
             style="fill:#686565;fill-opacity:1;fill-rule:nonzero;stroke:none"
             id="path246" /></g></g></g></g></svg>
